<svg width="48" height="45" viewBox="0 0 48 45" fill="none" xmlns="http://www.w3.org/2000/svg">
    <rect width="48" height="45" rx="10" fill="black" fill-opacity="0.1"/>
    <path opacity="0.4" d="M33.9999 25.9402C33.9999 28.7302 31.7599 30.9902 28.9699 31.0002H28.9599H19.0499C16.2699 31.0002 13.9999 28.7502 13.9999 25.9602V25.9502C13.9999 25.9502 14.0059 21.5242 14.0139 19.2982C14.0149 18.8802 14.4949 18.6462 14.8219 18.9062C17.1979 20.7912 21.4469 24.2282 21.4999 24.2732C22.2099 24.8422 23.1099 25.1632 24.0299 25.1632C24.9499 25.1632 25.8499 24.8422 26.5599 24.2622C26.6129 24.2272 30.7669 20.8932 33.1789 18.9772C33.5069 18.7162 33.9889 18.9502 33.9899 19.3672C33.9999 21.5762 33.9999 25.9402 33.9999 25.9402Z" fill="black"/>
    <path d="M33.476 15.6736C32.61 14.0416 30.906 12.9996 29.03 12.9996H19.05C17.174 12.9996 15.47 14.0416 14.604 15.6736C14.41 16.0386 14.502 16.4936 14.825 16.7516L22.25 22.6906C22.77 23.1106 23.4 23.3196 24.03 23.3196C24.034 23.3196 24.037 23.3196 24.04 23.3196C24.043 23.3196 24.047 23.3196 24.05 23.3196C24.68 23.3196 25.31 23.1106 25.83 22.6906L33.255 16.7516C33.578 16.4936 33.67 16.0386 33.476 15.6736Z" fill="black"/>
</svg>
